<svg xmlns="http://www.w3.org/2000/svg" xmlns:xlink="http://www.w3.org/1999/xlink" viewBox="0,0,256,256" width="64px" height="64px" fill-rule="nonzero" fill="none"><defs><linearGradient x1="32" y1="9.083" x2="32" y2="54.676" gradientUnits="userSpaceOnUse" id="color-1"><stop offset="0" stop-color="#fd7a00"></stop><stop offset="1" stop-color="#fb4500"></stop></linearGradient><linearGradient x1="23.5" y1="20.008" x2="23.5" y2="44.895" gradientUnits="userSpaceOnUse" id="color-2"><stop offset="0" stop-color="#ff8a00"></stop><stop offset="1" stop-color="#ff4d00"></stop></linearGradient><linearGradient x1="40.5" y1="20.008" x2="40.5" y2="44.895" gradientUnits="userSpaceOnUse" id="color-3"><stop offset="0" stop-color="#ff8a00"></stop><stop offset="1" stop-color="#ff4d00"></stop></linearGradient></defs><g transform="translate(-48.64,-48.64) scale(1.38,1.38)"><g fill="none" fill-rule="nonzero" stroke="none" stroke-width="1" stroke-linecap="butt" stroke-linejoin="none" stroke-miterlimit="10" stroke-dasharray="" stroke-dashoffset="0" font-family="none" font-weight="none" font-size="none" text-anchor="none" style="mix-blend-mode: normal"><path transform="scale(4,4)" d="M55,14v36c0,2.757 -2.243,5 -5,5h-36c-2.757,0 -5,-2.243 -5,-5v-36c0,-2.757 2.243,-5 5,-5h36c2.757,0 5,2.243 5,5z" id="strokeMainSVG" fill-opacity="0" fill="#dddddd" stroke-opacity="0" stroke="#dddddd" stroke-linejoin="round"></path><g transform="scale(4,4)" stroke="none" stroke-linejoin="miter"><path d="M50,9h-36c-2.757,0 -5,2.243 -5,5v36c0,2.757 2.243,5 5,5h36c2.757,0 5,-2.243 5,-5v-36c0,-2.757 -2.243,-5 -5,-5zM53,50c0,1.654 -1.346,3 -3,3h-36c-1.654,0 -3,-1.346 -3,-3v-36c0,-1.654 1.346,-3 3,-3h36c1.654,0 3,1.346 3,3z" fill="url(#color-1)"></path><path d="M31,23.214c-7.653,-7.231 -15,0.028 -15,0.028v19.789c7.827,-4.353 12.786,-0.436 15,1.863z" fill="url(#color-2)"></path><path d="M33,23.214v21.681c2.214,-2.299 7.173,-6.216 15,-1.863v-19.79c0,0 -7.347,-7.259 -15,-0.028z" fill="url(#color-3)"></path></g></g></g></svg>